<?xml version="1.0" encoding="UTF-8"?>
<svg xmlns="http://www.w3.org/2000/svg" viewBox="-5 -5 401.1 405.3">
  <style>
    .st1 { fill-rule: evenodd; }
    .st1, .st2 { fill: #aaf96b; }
  </style>
  <path class="st2" d="M46.8,278.7c13.9,13.9,28,28.1,41.6,41.7,9.2,9.2,18.6,18.7,28,28,52.9,0,107.8,0,163.2,0,24.4-24.5,47.2-47.3,69.8-69.7,0-55.7,0-110.5,0-163.1-25.6-25.4-48.4-48.2-69.8-69.7-21,0-42.3,0-62.9,0h-49.6c-16.7,0-33.7,0-50.5,0-23.6,23.4-47,46.8-69.7,69.7-.1,52.8-.1,107.6,0,162.9ZM114.8,365.7c-3.8,0-6.8-1.3-9.5-4-9.7-9.7-19.5-19.6-29.1-29.1-14.1-14.1-28.7-28.7-43-43.2-2.2-2.2-3.6-5.7-3.6-8.8-.1-56.6-.1-112.7,0-166.7,0-3.2,1.5-6.8,3.8-9.1,23.7-23.9,48.1-48.3,72.7-72.7,2.4-2.4,6.1-3.3,8.6-3.3,17.4,0,35.1,0,52.4,0h49.6c20.8,0,42.4,0,63.6,0,4.5,0,7.8,1.4,10.8,4.4,21.8,21.9,45.1,45.2,71.2,71.1,3,3,4.3,6.2,4.3,10.5,0,53.2,0,108.8,0,165.3,0,4-1.3,7.3-4.2,10.2-23.1,23-46.6,46.4-71.7,71.6-2.7,2.7-5.7,3.9-9.5,3.9-56.5,0-112.5,0-166.4,0h0Z"/>
  <path class="st2" d="M108.8,37.8c51.9,7.3,101.6,22.3,139.9,35.1-25.7-21.4-54.7-40.2-86.4-55.8l-1.6-.8-52,21.5h0ZM59.2,58.3l-13.4,32.5c59.3-23.3,123.2-29.7,190.2-19.1-57.9-15.5-107.6-22.5-155.2-22.3l-21.6,9ZM43,93.5l15-36.3,22.6-9.3c47-.3,96.1,6.6,153,21.6-36.6-11.8-81.4-24.4-127.8-30.6l-2.8-.4,57.7-23.9,2.2,1.1c33.1,16.3,63.2,36,89.7,58.6l3,2.5-3.7-1.2c-.2,0-.3,0-.5-.2v.5c-73.2-14.4-142.8-8.7-206.8,16.9l-1.7.7h0Z"/>
  <path class="st2" d="M96.5,351.6l52,21.5c-31.6-41.9-56-87.7-74.1-123.8,3,33.3,10.3,67.1,21.6,100.6l.6,1.7h0ZM176.5,384.8l21.6,9,32.5-13.4c-58.4-25.4-108.1-66.1-148-121,30,51.9,60.1,92,94,125.5h0ZM198.1,395.3l-22.5-9.4c-33.5-33-63.3-72.6-92.9-123.5,17.6,34.2,40.3,74.8,68.7,112l1.7,2.2-57.7-23.9-.8-2.3c-11.8-34.9-19.2-70.2-22-104.9l-.3-3.8,1.7,3.5s.2.3.2.5l.5-.3c41.5,61.8,94.7,107,158.1,134.2l1.6.7-36.3,15Z"/>
  <path class="st2" d="M43.7,95.7l-21.5,52c41.8-31.6,87.6-56,123.8-74.1-33.3,3-67.1,10.3-100.6,21.6l-1.7.6h0ZM1.6,197.2l13.4,32.5c25.4-58.4,66.1-108.1,121-148-51.9,30-92,60.1-125.5,94l-9,21.6h0ZM15,233.6L0,197.2v-.3c.1,0,9.4-22.3,9.4-22.3,33.1-33.5,72.6-63.3,123.5-92.9-34.2,17.6-74.8,40.3-112.1,68.7l-2.2,1.7,23.9-57.7,2.3-.8c34.9-11.8,70.2-19.2,104.9-22l3.8-.3-3.5,1.7s-.3.2-.5.2l.3.5C88.1,115.3,42.9,168.5,15.7,231.9l-.7,1.6Z"/>
  <path class="st2" d="M304.5,44.9c23.3,59.3,29.8,123.2,19.1,190.2,15.5-57.9,22.6-107.6,22.3-155.2l-9-21.6-32.5-13.4h0ZM357.5,108c-7.3,51.9-22.3,101.6-35.1,140,21.4-25.7,40.2-54.7,55.8-86.4l.8-1.6-21.5-52h0ZM318.6,254.8l1.2-3.7c0-.2,0-.3.2-.5h-.5c14.4-73.2,8.7-142.8-16.9-206.8l-.7-1.7,36.3,15,9.3,22.6c.3,47-6.6,96.1-21.6,153,11.8-36.6,24.4-81.4,30.6-127.8l.4-2.8,23.9,57.7-1.1,2.2c-16.3,33.1-36,63.2-58.6,89.7l-2.5,3h0Z"/>
  <path class="st1" d="M290.2,356.3c-50.5-6.8-98.8-20.8-146.2-36.7,27.1,23.1,57.2,42.5,89.6,58.5l1.9.9,32.5-13.4,22.4-9.3ZM144.7,319.3c73.5,14.4,142.9,8.7,207.1-17l-14.2,34.4-22,9.1c-58.2.4-113.9-10.3-170.9-26.5h0Z"/>
  <path class="st1" d="M39,289.4c6.8-50.5,20.8-98.8,36.7-146.2-23.1,27.1-42.5,57.2-58.5,89.6l-.9,1.9,13.4,32.5,9.3,22.4ZM76,143.8c-14.4,73.5-8.7,142.9,17,207.1l-34.4-14.2-9.1-22c-.4-58.2,10.3-113.9,26.5-170.9h0Z"/>
  <path class="st1" d="M245.4,19.6c30.9,40.5,55.2,84.5,77.5,129.3-2.9-35.4-10.4-70.4-22-104.7l-.7-2-32.5-13.4-22.4-9.3h0ZM322.1,148.7c-41.7-62.2-94.9-107.2-158.4-134.5L198.1,0l22,9.1c41.4,40.9,73.3,87.9,102.1,139.6Z"/>
  <path class="st2" d="M381.1,164.8c-25.4,58.4-66.1,108.1-121,148,51.9-30,92-60.1,125.5-94l9-21.6-13.4-32.5h0ZM374,246.9c-41.9,31.6-87.6,56-123.8,74.1,33.3-3,67.1-10.3,100.6-21.6l1.7-.6,21.5-52h0ZM242.6,323.1l3.5-1.7s.3-.2.5-.2l-.3-.5c61.8-41.5,107-94.7,134.2-158.1l.7-1.6,15,36.3v.3c-.1,0-9.4,22.3-9.4,22.3-33,33.5-72.6,63.3-123.5,92.9,34.2-17.6,74.8-40.3,112.1-68.7l2.2-1.7-23.9,57.7-2.3.8c-34.9,11.8-70.2,19.2-104.9,22l-3.8.3h0Z"/>
</svg>
