<?xml version="1.0" encoding="UTF-8"?>
<svg id="Layer_1" xmlns="http://www.w3.org/2000/svg" version="1.1" xmlns:xlink="http://www.w3.org/1999/xlink" viewBox="0 0 479.5 426.8">
  <!-- Generator: Adobe Illustrator 30.6.0, SVG Export Plug-In . SVG Version: 2.1.4 Build 109)  -->
  <defs>
    <style>
      .st0 {
        fill: #f0f1f1;
      }

      .st1 {
        fill: url(#linear-gradient);
      }
    </style>
    <linearGradient id="linear-gradient" x1="46" y1="280.8" x2="479.5" y2="280.8" gradientTransform="translate(0 427.7) scale(1 -1)" gradientUnits="userSpaceOnUse">
      <stop offset="0" stop-color="#f3ff3c"/>
      <stop offset=".7" stop-color="#cfff3c"/>
    </linearGradient>
  </defs>
  <path class="st1" d="M52.1,0h384.5c35.6,0,55.6,41,33.7,69.1l-170.3,218.5c-3,3.9-7.6,6.1-12.5,6.1h-61.6c-5,0-7.9-5.8-4.8-9.8l163.2-209.3c3.2-4,.3-10-4.9-10H91.5c-5.5,0-10.6-2.8-13.6-7.3L47,9.7C44.3,5.5,47.3,0,52.2,0h0Z"/>
  <path class="st0" d="M427.3,426.8H42.9c-35.6,0-55.6-41-33.7-69.1l170.3-218.5c3-3.9,7.6-6.1,12.5-6.1h61.6c5,0,7.9,5.8,4.8,9.8l-163.2,209.3c-3.2,4-.3,10,4.9,10h288c5.5,0,10.6,2.8,13.6,7.3l31,47.5c2.7,4.2-.3,9.7-5.2,9.7h0Z"/>
</svg>
